<?xml version="1.0" encoding="iso-8859-1"?>
<!-- Generator: Adobe Illustrator 19.0.0, SVG Export Plug-In . SVG Version: 6.00 Build 0)  -->
<svg version="1.1" id="Layer_1" xmlns="http://www.w3.org/2000/svg" xmlns:xlink="http://www.w3.org/1999/xlink" x="0px" y="0px"
	 viewBox="0 0 469.333 469.333" style="enable-background:new 0 0 469.333 469.333;" xml:space="preserve">
<path style="fill:#FFFFFF;" d="M138.667,458.667C115.104,458.667,96,439.563,96,416V53.333c0-23.563,19.104-42.667,42.667-42.667
	h192c23.563,0,42.667,19.104,42.667,42.667V416c0,23.563-19.104,42.667-42.667,42.667H138.667z"/>
<circle cx="234.667" cy="416" r="13.333"/>
<rect x="96" y="85.333" style="fill:#B0DEF0;" width="277.333" height="277.333"/>
<path d="M330.667,0h-192c-29.408,0-53.333,23.925-53.333,53.333v32v277.333V416c0,29.408,23.925,53.333,53.333,53.333h192
	C360.075,469.333,384,445.408,384,416v-53.333V85.333v-32C384,23.925,360.075,0,330.667,0z M138.667,21.333h192
	c17.643,0,32,14.357,32,32v21.333h-256V53.333C106.667,35.691,121.024,21.333,138.667,21.333z M362.667,352h-256V96h256V352z
	 M330.667,448h-192c-17.643,0-32-14.357-32-32v-42.667h256V416C362.667,433.643,348.309,448,330.667,448z"/>
<circle style="fill:#3AADD9;" cx="234.667" cy="224" r="85.333"/>
<path d="M234.667,320c-52.928,0-96-43.072-96-96s43.072-96,96-96c52.939,0,96,43.072,96,96S287.605,320,234.667,320z
	 M234.667,149.333C193.493,149.333,160,182.827,160,224s33.493,74.667,74.667,74.667c41.163,0,74.667-33.493,74.667-74.667
	S275.829,149.333,234.667,149.333z"/>
<path style="fill:#FFFFFF;" d="M266.667,208h-16v-16c0-8.843-7.157-16-16-16s-16,7.157-16,16v16h-16c-8.843,0-16,7.157-16,16
	c0,8.843,7.157,16,16,16h16v16c0,8.843,7.157,16,16,16s16-7.157,16-16v-16h16c8.843,0,16-7.157,16-16
	C282.667,215.157,275.509,208,266.667,208z"/>
<g>
</g>
<g>
</g>
<g>
</g>
<g>
</g>
<g>
</g>
<g>
</g>
<g>
</g>
<g>
</g>
<g>
</g>
<g>
</g>
<g>
</g>
<g>
</g>
<g>
</g>
<g>
</g>
<g>
</g>
</svg>
