<svg id="Filled_stroke_cutting_expand" height="512" viewBox="0 0 512 512" width="512" xmlns="http://www.w3.org/2000/svg" data-name="Filled stroke cutting expand"><g><circle cx="256" cy="256" fill="#57cee6" r="208"/><path d="m165.0375 369.1877-2.075-10.3754a19.7771 19.7771 0 0 1 10.5485-21.5679l7.5564-3.7782a19.7769 19.7769 0 0 0 10.9326-17.6891 19.777 19.777 0 0 0 -19.777-19.7771h-28.223l-21.6189-10.8094a20 20 0 0 0 -20.0383 1.2475l-14.3428 9.5619h-36.1575a207.7222 207.7222 0 0 0 64.276 113.9407l38.3706-19.1853a19.777 19.777 0 0 0 10.5484-21.5677z" fill="#f8feff"/><path d="m360 331.9978a19.9979 19.9979 0 0 1 -16.55 19.6985l-30.899 5.4072a19.9978 19.9978 0 0 0 -16.551 19.6986v11.2a19.9979 19.9979 0 0 1 -19.9978 19.9979h-32.0043a19.9978 19.9978 0 0 0 -19.9979 19.9978v33.5554a209.5917 209.5917 0 0 0 32 2.4468c95.4734 0 175.9229-64.3248 200.3744-152h-76.3766a19.9978 19.9978 0 0 0 -19.9978 19.9978z" fill="#f8feff"/><g><path d="m256 240-18.7128-56.1383a112.0412 112.0412 0 1 0 -36.8872 43.7827z" fill="#fff9f8"/><circle cx="136" cy="136" fill="#fa5d3f" r="56"/></g><g fill="#f8feff"><path d="m285.0557 134.5723v-16.6191a8 8 0 0 1 10.53-7.59l26.94 8.98a8 8 0 0 1 3.87 12.39l-12.8 17.0661a8 8 0 0 1 -10.8376 1.8564l-14.1408-9.4271a8 8 0 0 1 -3.5616-6.6563z"/><path d="m283.6305 326.5992-13.5072 8.1043a9 9 0 0 1 -13.63-7.7174v-16.2086a9 9 0 0 1 13.63-7.7174l13.5072 8.1043a9 9 0 0 1 0 15.4348z"/><path d="m414.9728 225.2488-13.2276-5.203 13.3911-18.1282a20 20 0 0 0 -7.4706-29.932l-13.5333-6.4606a20.0007 20.0007 0 0 0 -7.32-1.9091l-8.1312-.5284a20 20 0 0 0 -21.2546 18.6612l-.717 11.0342a20 20 0 0 1 -17.956 18.6027l-14.7028 1.4791a20 20 0 0 0 -17.9561 18.6027l-1.2123 18.6575a20 20 0 0 0 9.8725 18.5677l20.1644 11.775a20 20 0 0 0 26.1727-5.3876l6.2095-8.4059 27.1725 10.6883a12.0355 12.0355 0 0 0 15.56-6.7746l11.7135-29.779a12.0353 12.0353 0 0 0 -6.7747-15.56z"/></g><path d="m424 40a64.0018 64.0018 0 0 0 -40 113.9626v38.0374l29.7751-24.8126a64.0044 64.0044 0 1 0 10.2249-127.1874z" fill="#fdbf44"/><path d="m441.6915 485.0329a64.0017 64.0017 0 0 1 -69.9705-98.4459l-10.5245-36.5524 35.4781 15.6054a64.0044 64.0044 0 1 1 45.0169 119.3929z" fill="#fdbf44"/><path d="m88 488a64.0018 64.0018 0 0 0 40-113.9626v-38.0374l-29.7751 24.8126a64.0044 64.0044 0 1 0 -10.2249 127.1874z" fill="#fdbf44"/><g><path d="m256 56a198.2646 198.2646 0 0 1 84.6113 18.7251l6.7774-14.4941a214.1565 214.1565 0 0 0 -91.3887-20.231c-5.53 0-11.1177.2119-16.6069.6294l1.2138 15.9541c5.0869-.3872 10.2661-.5835 15.3931-.5835z"/><path d="m136 256a119.2291 119.2291 0 0 0 66.0454-19.7949l52.2192 11.6049a8 8 0 0 0 9.3248-10.3394l-17.7168-53.1494a118.9273 118.9273 0 0 0 10.1274-48.3212 120 120 0 0 0 -205.7144-83.9824l11.4278 11.1982a104.0228 104.0228 0 0 1 168.3428 117.2232 7.9978 7.9978 0 0 0 -.3584 5.9526l14.2446 42.7339-41.8071-9.29a8.0006 8.0006 0 0 0 -6.3409 1.268 104.0126 104.0126 0 0 1 -145.1577-144.5268l-13.123-9.1534a120.0128 120.0128 0 0 0 98.4863 188.5767z"/><path d="m120 96h16v16h-16z"/><path d="m128 128h16v16h-16z"/><path d="m104 152h16v16h-16z"/><path d="m160 136h16v16h-16z"/><path d="m48 120v32h16v-8h8.4977a63.6944 63.6944 0 0 0 12.9639 31.2249l-6.03 6.03-5.657-5.657-11.3137 11.3137 22.6275 22.6275 11.3135-11.3135-5.657-5.657 6.03-6.03a63.6944 63.6944 0 0 0 31.2251 12.9637v8.4977h-8v16h32v-16h-8v-8.4977a63.6944 63.6944 0 0 0 31.2249-12.9639l6.03 6.03-5.657 5.657 11.3135 11.3135 22.6275-22.6275-11.3135-11.3135-5.657 5.657-6.03-6.03a63.6944 63.6944 0 0 0 12.9639-31.2249h8.4977v8h16v-32h-16v8h-8.4977a63.6944 63.6944 0 0 0 -12.9639-31.2249l6.03-6.03 5.657 5.657 11.3135-11.3135-22.6273-22.6277-11.3135 11.3135 5.657 5.657-6.03 6.03a63.6944 63.6944 0 0 0 -31.2251-12.9637v-8.4977h8v-16h-32v16h8v8.4977a63.6944 63.6944 0 0 0 -31.2249 12.9639l-6.03-6.03 5.657-5.657-11.3137-11.3137-22.6275 22.6275 11.3135 11.3135 5.657-5.657 6.03 6.03a63.6944 63.6944 0 0 0 -12.9637 31.2251h-8.4977v-8zm88-32a48 48 0 1 1 -48 48 48.0543 48.0543 0 0 1 48-48z"/><path d="m307.1821 159.9985a15.989 15.989 0 0 0 12.8145-6.3994l12.7993-17.0659a16 16 0 0 0 -7.74-24.7788l-26.94-8.98a16 16 0 0 0 -21.06 15.1787v16.6192a15.9652 15.9652 0 0 0 7.125 13.3125l14.14 9.4272a15.9307 15.9307 0 0 0 8.8612 2.6865zm-14.1264-42.0454 26.94 8.98-12.7994 17.0669-14.1411-9.4277zm0 16.62-8-.0009h8z"/><path d="m296 318.8818a16.8633 16.8633 0 0 0 -8.2534-14.5771l-13.5073-8.1047a17 17 0 0 0 -25.7466 14.5771v16.209a16.9609 16.9609 0 0 0 25.747 14.5772l13.5069-8.1045a16.8628 16.8628 0 0 0 8.2534-14.577zm-16.4854.8575-13.5064 8.1045a1 1 0 0 1 -1.5151-.8575v-16.209a.9178.9178 0 0 1 .5073-.87 1.0113 1.0113 0 0 1 .5024-.1435.9543.9543 0 0 1 .5049.1562l13.5073 8.1045a1 1 0 0 1 0 1.7149z"/><path d="m280 176h16v16h-16z"/><path d="m337.9531 203.4258-14.7026 1.479a27.9123 27.9123 0 0 0 -25.1387 26.0439l-1.2118 18.6577a27.846 27.846 0 0 0 13.8213 25.9942l20.1645 11.7754a27.9512 27.9512 0 0 0 36.6407-7.543l2.561-3.4668 21.458 8.4409a20.0354 20.0354 0 0 0 25.9331-11.2915l11.7139-29.7793a20.0347 20.0347 0 0 0 -11.2915-25.9321l-3.5288-1.3882 7.1972-9.7431a28.32 28.32 0 0 0 1.7519-2.6729l-13.8565-7.999a12.4751 12.4751 0 0 1 -.7631 1.1636l-13.3912 18.1284a8 8 0 0 0 3.5064 12.1982l13.228 5.2031a4.0533 4.0533 0 0 1 2.2578 5.1861l-11.7138 29.7793a4.0364 4.0364 0 0 1 -5.1866 2.2583l-27.1723-10.689a8.0026 8.0026 0 0 0 -9.3628 2.6914l-6.21 8.4058a11.98 11.98 0 0 1 -15.7026 3.2334l-20.1646-11.7754a11.9336 11.9336 0 0 1 -5.9234-11.1406l1.2124-18.6578a11.9613 11.9613 0 0 1 10.7735-11.1611l14.7031-1.479a27.9126 27.9126 0 0 0 25.1377-26.0439l.7177-11.0357a12.006 12.006 0 0 1 .7393-3.4512l-14.9766-5.63a27.9792 27.9792 0 0 0 -1.729 8.0444l-.7177 11.0347a11.9623 11.9623 0 0 1 -10.7739 11.1618z"/><path d="m216 272h16v16h-16z"/><path d="m376 157.6685v34.3315a8 8 0 0 0 13.1216 6.146l27.0784-22.5649a72.977 72.977 0 0 0 7.8.4189 71.9948 71.9948 0 1 0 -48-18.3315zm48-109.6685a56 56 0 0 1 0 112 56.6429 56.6429 0 0 1 -8.9561-.7114 8.0025 8.0025 0 0 0 -6.39 1.7529l-16.6539 13.8785v-20.9576a8.0013 8.0013 0 0 0 -2.9961-6.2422 56.0014 56.0014 0 0 1 34.9961-99.7202z"/><path d="m416 64h16v56h-16z"/><path d="m416 128h16v16h-16z"/><path d="m477.7974 408.0376a56.6244 56.6244 0 0 1 1.8076 8.9136l15.8867-1.9024a72.7 72.7 0 0 0 -2.3193-11.4384 71.9994 71.9994 0 0 0 -89.11-49.2676 72.9413 72.9413 0 0 0 -7.38 2.56l-31.031-13.6488a27.9941 27.9941 0 0 0 2.3486-11.256 12.0116 12.0116 0 0 1 11.998-11.998h65.5489q-2.2289 6.5938-4.9278 13.0557l14.7627 6.1689a216.9068 216.9068 0 0 0 6.1988-149.6841l-15.2256 4.9195a201.5384 201.5384 0 0 1 3.8603 109.54h-70.2173a28.03 28.03 0 0 0 -27.998 27.998 11.9769 11.9769 0 0 1 -9.93 11.8179l-30.8989 5.4072a27.952 27.952 0 0 0 -23.1711 27.5791v11.2a12.0116 12.0116 0 0 1 -11.998 11.9978h-32.004a28.03 28.03 0 0 0 -27.998 27.998v24.0138a198.2382 198.2382 0 0 1 -37.0557-11.3927l-6.1689 14.7627a216.7039 216.7039 0 0 0 166.4487 0l-6.1689-14.7627a198.7948 198.7948 0 0 1 -77.0552 15.3809 202.802 202.802 0 0 1 -24-1.4173v-26.5847a12.0116 12.0116 0 0 1 11.998-11.998h32.004a28.03 28.03 0 0 0 27.998-27.998v-11.2a11.9779 11.9779 0 0 1 9.93-11.8183l30.8984-5.4072a28.0149 28.0149 0 0 0 9.7388-3.6537l8.4414 29.3163a72.0062 72.0062 0 1 0 132.3579 47.8232l-15.8584-2.125a56.0082 56.0082 0 1 1 -101.251-39.7368 7.9991 7.9991 0 0 0 1.1519-6.8272l-5.799-20.1384 19.8437 8.728a7.996 7.996 0 0 0 6.626-.0835 56.6718 56.6718 0 0 1 8.4092-3.1616 56.0007 56.0007 0 0 1 69.3086 38.32z"/><path d="m416 384h16v56h-16z"/><path d="m416 448h16v16h-16z"/><path d="m172.8823 367.6187-2.0752-10.375a11.8037 11.8037 0 0 1 6.2813-12.8437l7.5566-3.7783a27.777 27.777 0 0 0 -12.4219-52.6217h-26.3344l-19.93-9.9648a28.0621 28.0621 0 0 0 -28.0537 1.7465l-12.3274 8.2183h-27.0429a201.7526 201.7526 0 0 1 -2.5347-32c0-5.127.1963-10.3062.5835-15.3931l-15.9541-1.2138c-.4175 5.4892-.6294 11.0769-.6294 16.6069a214.7059 214.7059 0 0 0 16.6187 83.2246l14.7626-6.1689a198.6015 198.6015 0 0 1 -9.5964-29.0557h26.2151a7.9958 7.9958 0 0 0 4.4375-1.3438l14.3428-9.562a12.0294 12.0294 0 0 1 12.0234-.7485l21.6187 10.81a7.9964 7.9964 0 0 0 3.5776.8443h28.2231a11.7772 11.7772 0 0 1 5.2666 22.311l-7.5566 3.7784a27.838 27.838 0 0 0 -14.8154 30.2919l2.0752 10.375a11.8041 11.8041 0 0 1 -6.2813 12.8437l-2.4643 1.2322a72.154 72.154 0 0 0 -12.4473-14.5007v-34.3315a8 8 0 0 0 -13.1216-6.146l-27.0776 22.5649a72.9934 72.9934 0 0 0 -7.8008-.4189 71.89 71.89 0 1 0 67.6059 47.1411l2.461-1.2305a27.838 27.838 0 0 0 14.8154-30.2919zm-84.8823 112.3813a56 56 0 0 1 0-112 56.647 56.647 0 0 1 8.9565.7114 8.0032 8.0032 0 0 0 6.39-1.7529l16.6535-13.8779v20.957a8.0013 8.0013 0 0 0 2.9961 6.2422 56.0014 56.0014 0 0 1 -34.9961 99.7202z"/><path d="m80 384h16v56h-16z"/><path d="m80 448h16v16h-16z"/></g></g></svg>