<svg id="Filled_stroke_cutting_expand" height="512" viewBox="0 0 512 512" width="512" xmlns="http://www.w3.org/2000/svg" data-name="Filled stroke cutting expand"><g><path d="m168 495.338v-40l4.3725-48.0972a80 80 0 0 0 -26.1543-66.7064l-27.6517-24.8866a32 32 0 0 0 -44.0343 1.158l-2.5322 2.5322 32 48-32-48v-87.9954a47.3424 47.3424 0 0 0 -48-47.3379v150.6666l64 120.6667v40z" fill="#ffd4cf"/><path d="m96 495.3379h-16v-38.01l-24.1748-45.58 14.1348-7.497 25.1074 47.3379a8.0007 8.0007 0 0 1 .9326 3.7491z"/><path d="m176 495.3379h-16v-40q0-.3625.0327-.7241l4.3726-48.0972a72.3341 72.3341 0 0 0 -23.5386-60.0361l-27.6519-24.8863a23.9966 23.9966 0 0 0 -30.8193-1.0854l28.2607 42.3912a8 8 0 1 1 -13.3124 8.875l-32-48-.0118-.0171-.0039-.0059-.0068-.0107-.0054-.0083-.0054-.0083-.0068-.01-.0029-.0049a7.98 7.98 0 0 1 -1.3008-4.4129v-87.9541a39.3762 39.3762 0 0 0 -32-38.6651v140.0035l29.4736 55.57-14.1347 7.497-30.4063-57.3282a8.001 8.001 0 0 1 -.9326-3.7486v-150.6665a8 8 0 0 1 7.8887-7.999 55.3418 55.3418 0 0 1 56.1113 55.3369v71.9472a40.0009 40.0009 0 0 1 43.9185 6.4121l27.6515 24.8858a88.4065 88.4065 0 0 1 28.77 73.3769l-4.34 47.7359z"/><path d="m344 495.338v-40l-4.3725-48.0972a80 80 0 0 1 26.1543-66.7064l27.6517-24.8866a32 32 0 0 1 44.0343 1.158l2.5322 2.5322-32 48 32-48v-87.9954a47.3424 47.3424 0 0 1 48-47.3379v150.6666l-64 120.6667v40z" fill="#ffd4cf"/><path d="m432 495.3379h-16v-40a8.0007 8.0007 0 0 1 .9326-3.7485l63.0674-118.9082v-140.004a39.3774 39.3774 0 0 0 -32 38.6656v87.9541a7.98 7.98 0 0 1 -1.3008 4.4135l-.0029.0049-.0068.01-.0054.0083-.0054.0083-.0068.0107-.0039.0059-.0118.0171-32 48a8 8 0 1 1 -13.3124-8.875l28.2607-42.3916a23.9978 23.9978 0 0 0 -30.8189 1.0854l-27.6523 24.8863a72.3341 72.3341 0 0 0 -23.5386 60.0361l4.3726 48.0972q.033.361.0327.7241v40h-16v-39.6374l-4.34-47.7359a88.4065 88.4065 0 0 1 28.77-73.3769l27.6518-24.8862a40.0076 40.0076 0 0 1 43.9182-6.4126v-71.9463a55.3418 55.3418 0 0 1 56.1113-55.3369 8 8 0 0 1 7.8887 7.999v150.6665a8.001 8.001 0 0 1 -.9326 3.7485l-63.0674 118.9082z"/><g><path d="m131.019 289.479-32.447-189.252 158.576-76.227 156.212 76.32-32.431 189.159-124.955 76.052z" fill="#57cee6"/><path d="m160.098 269.717-25.907-151.107 122.844-59.05 120.734 58.986-25.918 151.171-95.877 58.353z" fill="#f8feff"/><circle cx="256" cy="192" fill="#fa5d3f" r="56"/><g><path d="m240 152h16v16h-16z"/><path d="m248 184h16v16h-16z"/><path d="m224 208h16v16h-16z"/><path d="m280 192h16v16h-16z"/><path d="m168 176v32h16v-8h8.4977a63.6944 63.6944 0 0 0 12.9639 31.2249l-6.03 6.03-5.657-5.657-11.3135 11.3135 22.6275 22.6275 11.3135-11.3135-5.657-5.657 6.03-6.03a63.6944 63.6944 0 0 0 31.2249 12.9639v8.4977h-8v16h32v-16h-8v-8.4977a63.6944 63.6944 0 0 0 31.2249-12.9639l6.03 6.03-5.657 5.657 11.3135 11.3135 22.6275-22.6275-11.3135-11.3135-5.657 5.657-6.03-6.03a63.6944 63.6944 0 0 0 12.9639-31.2249h8.4977v8h16v-32h-16v8h-8.4977a63.6944 63.6944 0 0 0 -12.9639-31.2249l6.03-6.03 5.657 5.657 11.3135-11.3135-22.6275-22.6275-11.3135 11.3135 5.657 5.657-6.03 6.03a63.6944 63.6944 0 0 0 -31.2249-12.9639v-8.4977h8v-16h-32v16h8v8.4977a63.6944 63.6944 0 0 0 -31.2249 12.9639l-6.03-6.03 5.657-5.657-11.3135-11.3135-22.6275 22.6275 11.3135 11.3135 5.657-5.657 6.03 6.03a63.6944 63.6944 0 0 0 -12.9639 31.2249h-8.4977v-8zm88-32a48 48 0 1 1 -48 48 48.0543 48.0543 0 0 1 48-48z"/><path d="m416.8721 93.1318-156.2121-76.3198a8.0007 8.0007 0 0 0 -6.9776-.0224l-158.576 76.2265a8.0009 8.0009 0 0 0 -4.4189 8.5625l32.4468 189.2529a8 8 0 0 0 3.7256 5.482l124.955 76.0512a8 8 0 0 0 8.3184 0l124.9551-76.0512a8.0006 8.0006 0 0 0 3.7256-5.482l8.4834-49.4794-15.77-2.7042-7.8674 45.8907-117.6859 71.6269-117.6855-71.6269-30.8115-179.7163 149.6429-71.9323 147.3428 71.9864-20.1918 117.7715 15.7695 2.7042 21.2046-123.68a8 8 0 0 0 -4.373-8.5403z"/><path d="m150.5435 166.6479-15.77 2.7042 17.439 101.7167a8 8 0 0 0 3.7256 5.482l95.8764 58.353a8.0011 8.0011 0 0 0 8.3184 0l95.8765-58.353a8.0009 8.0009 0 0 0 3.7256-5.482l25.9179-151.1709a8 8 0 0 0 -4.373-8.54l-120.7335-58.9863a7.9994 7.9994 0 0 0 -6.9776-.0225l-122.8437 59.05a8 8 0 0 0 -4.4189 8.5625l5.7246 33.39 15.7692-2.7037-4.7046-27.4423 113.9109-54.7556 111.8643 54.6528-24.29 141.6734-88.607 53.9287-88.6069-53.9287z"/></g></g><g><path d="m448 16h16v16h-16z"/><path d="m448 48h16v16h-16z"/><path d="m432 32h16v16h-16z"/><path d="m464 32h16v16h-16z"/></g><g><path d="m32 104h16v16h-16z"/><path d="m32 136h16v16h-16z"/><path d="m16 120h16v16h-16z"/><path d="m48 120h16v16h-16z"/></g></g></svg>